<?xml version="1.0" encoding="UTF-8" standalone="no"?>
<!-- Created with Inkscape (http://www.inkscape.org/) -->

<svg
   width="42.023491mm"
   height="41.035854mm"
   viewBox="0 0 47.634418 46.514914"
   version="1.1"
   id="svg1"
   inkscape:version="1.4 (86a8ad7, 2024-10-11)"
   sodipodi:docname="favicon.svg"
   xmlns:inkscape="http://www.inkscape.org/namespaces/inkscape"
   xmlns:sodipodi="http://sodipodi.sourceforge.net/DTD/sodipodi-0.dtd"
   xmlns="http://www.w3.org/2000/svg"
   xmlns:svg="http://www.w3.org/2000/svg">
  <sodipodi:namedview
     id="namedview1"
     pagecolor="#ffffff"
     bordercolor="#000000"
     borderopacity="0.25"
     inkscape:showpageshadow="2"
     inkscape:pageopacity="0.0"
     inkscape:pagecheckerboard="0"
     inkscape:deskcolor="#d1d1d1"
     inkscape:document-units="mm"
     inkscape:zoom="2.0888418"
     inkscape:cx="84.017851"
     inkscape:cy="84.496586"
     inkscape:window-width="1920"
     inkscape:window-height="1009"
     inkscape:window-x="1912"
     inkscape:window-y="-8"
     inkscape:window-maximized="1"
     inkscape:current-layer="layer1"
     showgrid="false" />
  <defs
     id="defs1" />
  <g
     inkscape:label="Layer 1"
     inkscape:groupmode="layer"
     id="layer1"
     transform="translate(-85.596724,-148.97298)">
    <g
       id="g1">
      <path
         style="fill:#000000;fill-opacity:1;stroke:#000000;stroke-width:8.7;stroke-linecap:round;stroke-linejoin:round;stroke-dasharray:none;stroke-dashoffset:327.084;stroke-opacity:1;paint-order:markers fill stroke"
         d="m 89.946724,191.13789 h 27.412566 l -1e-5,-10.40826 h 11.52186 v -27.40665 h -27.41256 v 10.40826 H 89.946724 Z"
         id="path28-9" />
      <path
         id="path14-28-7"
         style="fill:#ffffff;stroke-linecap:round;stroke-linejoin:round;stroke-dasharray:12.363, 8.24201;stroke-dashoffset:86.5409;paint-order:markers fill stroke"
         d="m 103.53297,153.31278 a 2.0604999,2.0604999 0 0 0 -2.06085,2.06034 v 5.73246 a 2.0604999,2.0604999 0 0 0 2.06085,2.06034 2.0604999,2.0604999 0 0 0 2.06034,-2.06034 v -3.67161 h 3.67213 a 2.0604999,2.0604999 0 0 0 2.06034,-2.06085 2.0604999,2.0604999 0 0 0 -2.06034,-2.06034 z m 17.55449,0 a 2.0604999,2.0604999 0 0 0 -2.05879,2.06034 2.0604999,2.0604999 0 0 0 2.05879,2.06085 h 3.67213 v 3.67161 a 2.0604999,2.0604999 0 0 0 2.06033,2.06034 2.0604999,2.0604999 0 0 0 2.06034,-2.06034 v -5.73246 a 2.0604999,2.0604999 0 0 0 -0.004,-0.13488 2.0604999,2.0604999 0 0 0 -0.0351,-0.26717 2.0604999,2.0604999 0 0 0 -0.031,-0.13125 2.0604999,2.0604999 0 0 0 -0.0863,-0.25529 2.0604999,2.0604999 0 0 0 -0.0558,-0.12247 2.0604999,2.0604999 0 0 0 -0.13487,-0.23358 2.0604999,2.0604999 0 0 0 -0.0786,-0.10955 2.0604999,2.0604999 0 0 0 -0.17777,-0.20257 2.0604999,2.0604999 0 0 0 -0.0982,-0.0925 2.0604999,2.0604999 0 0 0 -0.21394,-0.16382 2.0604999,2.0604999 0 0 0 -0.1142,-0.0713 2.0604999,2.0604999 0 0 0 -0.24185,-0.11937 2.0604999,2.0604999 0 0 0 -0.12609,-0.0476 2.0604999,2.0604999 0 0 0 -0.26045,-0.0698 2.0604999,2.0604999 0 0 0 -0.13332,-0.0217 2.0604999,2.0604999 0 0 0 -0.26872,-0.0176 z m -29.079878,10.4314 a 2.0604999,2.0604999 0 0 0 -2.060857,2.06086 v 5.73246 a 2.0604999,2.0604999 0 0 0 2.060857,2.06034 2.0604999,2.0604999 0 0 0 2.060339,-2.06034 v -3.67212 h 3.672131 a 2.0604999,2.0604999 0 0 0 2.06034,-2.06034 2.0604999,2.0604999 0 0 0 -2.06034,-2.06086 z m 17.554478,0 a 2.0604999,2.0604999 0 0 0 -2.06034,2.06086 2.0604999,2.0604999 0 0 0 2.06034,2.06034 h 3.67213 v 3.67212 a 2.0604999,2.0604999 0 0 0 2.06034,2.06034 2.0604999,2.0604999 0 0 0 2.06034,-2.06034 v -5.73246 a 2.0604999,2.0604999 0 0 0 -0.004,-0.13488 2.0604999,2.0604999 0 0 0 -0.0351,-0.26717 2.0604999,2.0604999 0 0 0 -0.031,-0.13125 2.0604999,2.0604999 0 0 0 -0.0863,-0.25529 2.0604999,2.0604999 0 0 0 -0.0558,-0.12299 2.0604999,2.0604999 0 0 0 -0.13488,-0.23357 2.0604999,2.0604999 0 0 0 -0.0785,-0.10956 2.0604999,2.0604999 0 0 0 -0.17776,-0.20257 2.0604999,2.0604999 0 0 0 -0.0982,-0.092 2.0604999,2.0604999 0 0 0 -0.21394,-0.16433 2.0604999,2.0604999 0 0 0 -0.11421,-0.0713 2.0604999,2.0604999 0 0 0 -0.24184,-0.11885 2.0604999,2.0604999 0 0 0 -0.12609,-0.0475 2.0604999,2.0604999 0 0 0 -0.26045,-0.0698 2.0604999,2.0604999 0 0 0 -0.13333,-0.0222 2.0604999,2.0604999 0 0 0 -0.26872,-0.0176 z m -6.02909,7.12308 a 2.0604999,2.0604999 0 0 0 -2.06085,2.06086 v 5.73195 a 2.0604999,2.0604999 0 0 0 2.06085,2.06085 h 5.73247 a 2.0604999,2.0604999 0 0 0 2.06034,-2.06085 2.0604999,2.0604999 0 0 0 -2.06034,-2.06034 h -3.67213 v -3.67161 a 2.0604999,2.0604999 0 0 0 -2.06034,-2.06086 z m 23.28695,0 a 2.0604999,2.0604999 0 0 0 -2.06033,2.06086 v 3.67161 h -3.67213 a 2.0604999,2.0604999 0 0 0 -2.05879,2.06034 2.0604999,2.0604999 0 0 0 2.05879,2.06085 h 5.73246 a 2.0604999,2.0604999 0 0 0 2.06034,-2.06085 v -5.73195 a 2.0604999,2.0604999 0 0 0 -2.06034,-2.06086 z m -34.812338,10.43192 a 2.0604999,2.0604999 0 0 0 -2.060857,2.06034 v 5.73247 a 2.0604999,2.0604999 0 0 0 2.060857,2.06034 h 5.73247 a 2.0604999,2.0604999 0 0 0 2.06034,-2.06034 2.0604999,2.0604999 0 0 0 -2.06034,-2.06086 h -3.672131 v -3.67161 a 2.0604999,2.0604999 0 0 0 -2.060339,-2.06034 z m 23.286948,0 a 2.0604999,2.0604999 0 0 0 -2.06034,2.06034 v 3.67161 h -3.67213 a 2.0604999,2.0604999 0 0 0 -2.06034,2.06086 2.0604999,2.0604999 0 0 0 2.06034,2.06034 h 5.73247 a 2.0604999,2.0604999 0 0 0 2.06034,-2.06034 v -5.73247 a 2.0604999,2.0604999 0 0 0 -2.06034,-2.06034 z" />
    </g>
  </g>
</svg>
